<svg id="visual" viewBox="0 0 900 200" width="900" height="200" xmlns="http://www.w3.org/2000/svg" xmlns:xlink="http://www.w3.org/1999/xlink" version="1.1"><rect x="0" y="0" width="900" height="200" fill="#e5e5e5"></rect><path d="M0 107L21.5 104.8C43 102.7 86 98.3 128.8 105.3C171.7 112.3 214.3 130.7 257.2 132C300 133.3 343 117.7 385.8 114.3C428.7 111 471.3 120 514.2 127.7C557 135.3 600 141.7 642.8 135.2C685.7 128.7 728.3 109.3 771.2 102C814 94.7 857 99.3 878.5 101.7L900 104L900 0L878.5 0C857 0 814 0 771.2 0C728.3 0 685.7 0 642.8 0C600 0 557 0 514.2 0C471.3 0 428.7 0 385.8 0C343 0 300 0 257.2 0C214.3 0 171.7 0 128.8 0C86 0 43 0 21.5 0L0 0Z" fill="#d1d1d1"></path><path d="M0 122L21.5 114.5C43 107 86 92 128.8 90C171.7 88 214.3 99 257.2 105.8C300 112.7 343 115.3 385.8 112.3C428.7 109.3 471.3 100.7 514.2 100.3C557 100 600 108 642.8 110.5C685.7 113 728.3 110 771.2 110.8C814 111.7 857 116.3 878.5 118.7L900 121L900 0L878.5 0C857 0 814 0 771.2 0C728.3 0 685.7 0 642.8 0C600 0 557 0 514.2 0C471.3 0 428.7 0 385.8 0C343 0 300 0 257.2 0C214.3 0 171.7 0 128.8 0C86 0 43 0 21.5 0L0 0Z" fill="#9f9f9f"></path><path d="M0 53L21.5 59C43 65 86 77 128.8 80.2C171.7 83.3 214.3 77.7 257.2 76C300 74.3 343 76.7 385.8 78C428.7 79.3 471.3 79.7 514.2 80.2C557 80.7 600 81.3 642.8 80.7C685.7 80 728.3 78 771.2 76.7C814 75.3 857 74.7 878.5 74.3L900 74L900 0L878.5 0C857 0 814 0 771.2 0C728.3 0 685.7 0 642.8 0C600 0 557 0 514.2 0C471.3 0 428.7 0 385.8 0C343 0 300 0 257.2 0C214.3 0 171.7 0 128.8 0C86 0 43 0 21.5 0L0 0Z" fill="#707070"></path><path d="M0 46L21.5 44C43 42 86 38 128.8 36.3C171.7 34.7 214.3 35.3 257.2 38.3C300 41.3 343 46.7 385.8 49.3C428.7 52 471.3 52 514.2 52.3C557 52.7 600 53.3 642.8 55C685.7 56.7 728.3 59.3 771.2 60.7C814 62 857 62 878.5 62L900 62L900 0L878.5 0C857 0 814 0 771.2 0C728.3 0 685.7 0 642.8 0C600 0 557 0 514.2 0C471.3 0 428.7 0 385.8 0C343 0 300 0 257.2 0C214.3 0 171.7 0 128.8 0C86 0 43 0 21.5 0L0 0Z" fill="#444444"></path><path d="M0 42L21.5 40.2C43 38.3 86 34.7 128.8 32.2C171.7 29.7 214.3 28.3 257.2 29.7C300 31 343 35 385.8 37.7C428.7 40.3 471.3 41.7 514.2 39.2C557 36.7 600 30.3 642.8 29.2C685.7 28 728.3 32 771.2 33.7C814 35.3 857 34.7 878.5 34.3L900 34L900 0L878.5 0C857 0 814 0 771.2 0C728.3 0 685.7 0 642.8 0C600 0 557 0 514.2 0C471.3 0 428.7 0 385.8 0C343 0 300 0 257.2 0C214.3 0 171.7 0 128.8 0C86 0 43 0 21.5 0L0 0Z" fill="#1d1d1d"></path></svg>