<svg id="visual" viewBox="0 0 900 300" width="900" height="300" xmlns="http://www.w3.org/2000/svg" xmlns:xlink="http://www.w3.org/1999/xlink" version="1.1">
    <rect x="0" y="0" width="900" height="300" fill="#001220"></rect>
    <path d="M0 74L11.5 79.7C23 85.3 46 96.7 69 102.8C92 109 115 110 138.2 106.2C161.3 102.3 184.7 93.7 207.8 90.7C231 87.7 254 90.3 277 94.5C300 98.7 323 104.3 346 104.5C369 104.7 392 99.3 415.2 93.5C438.3 87.7 461.7 81.3 484.8 85.8C508 90.3 531 105.7 554 107.8C577 110 600 99 623 91.2C646 83.3 669 78.7 692.2 85.3C715.3 92 738.7 110 761.8 113.8C785 117.7 808 107.3 831 106.3C854 105.3 877 113.7 888.5 117.8L900 122L900 0L888.5 0C877 0 854 0 831 0C808 0 785 0 761.8 0C738.7 0 715.3 0 692.2 0C669 0 646 0 623 0C600 0 577 0 554 0C531 0 508 0 484.8 0C461.7 0 438.3 0 415.2 0C392 0 369 0 346 0C323 0 300 0 277 0C254 0 231 0 207.8 0C184.7 0 161.3 0 138.2 0C115 0 92 0 69 0C46 0 23 0 11.5 0L0 0Z" fill="#fa7268"></path>
    <path d="M0 56L11.5 60.8C23 65.7 46 75.3 69 77.7C92 80 115 75 138.2 76.7C161.3 78.3 184.7 86.7 207.8 89.3C231 92 254 89 277 89.7C300 90.3 323 94.7 346 88.7C369 82.7 392 66.3 415.2 62.8C438.3 59.3 461.7 68.7 484.8 73.3C508 78 531 78 554 76.7C577 75.3 600 72.7 623 68.5C646 64.3 669 58.7 692.2 59C715.3 59.3 738.7 65.7 761.8 73.7C785 81.7 808 91.3 831 92.3C854 93.3 877 85.7 888.5 81.8L900 78L900 0L888.5 0C877 0 854 0 831 0C808 0 785 0 761.8 0C738.7 0 715.3 0 692.2 0C669 0 646 0 623 0C600 0 577 0 554 0C531 0 508 0 484.8 0C461.7 0 438.3 0 415.2 0C392 0 369 0 346 0C323 0 300 0 277 0C254 0 231 0 207.8 0C184.7 0 161.3 0 138.2 0C115 0 92 0 69 0C46 0 23 0 11.5 0L0 0Z" fill="#ef5f67"></path>
    <path d="M0 52L11.5 55C23 58 46 64 69 68.5C92 73 115 76 138.2 74.7C161.3 73.3 184.7 67.7 207.8 62.7C231 57.7 254 53.3 277 53C300 52.7 323 56.3 346 62C369 67.7 392 75.3 415.2 73.2C438.3 71 461.7 59 484.8 56.8C508 54.7 531 62.3 554 62.7C577 63 600 56 623 55.5C646 55 669 61 692.2 66.7C715.3 72.3 738.7 77.7 761.8 74C785 70.3 808 57.7 831 54C854 50.3 877 55.7 888.5 58.3L900 61L900 0L888.5 0C877 0 854 0 831 0C808 0 785 0 761.8 0C738.7 0 715.3 0 692.2 0C669 0 646 0 623 0C600 0 577 0 554 0C531 0 508 0 484.8 0C461.7 0 438.3 0 415.2 0C392 0 369 0 346 0C323 0 300 0 277 0C254 0 231 0 207.8 0C184.7 0 161.3 0 138.2 0C115 0 92 0 69 0C46 0 23 0 11.5 0L0 0Z" fill="#e34c67"></path>
    <path d="M0 50L11.5 45.7C23 41.3 46 32.7 69 32.7C92 32.7 115 41.3 138.2 45.3C161.3 49.3 184.7 48.7 207.8 46.3C231 44 254 40 277 38.5C300 37 323 38 346 37C369 36 392 33 415.2 36.8C438.3 40.7 461.7 51.3 484.8 55.7C508 60 531 58 554 57C577 56 600 56 623 56.8C646 57.7 669 59.3 692.2 60.3C715.3 61.3 738.7 61.7 761.8 58.3C785 55 808 48 831 44.7C854 41.3 877 41.7 888.5 41.8L900 42L900 0L888.5 0C877 0 854 0 831 0C808 0 785 0 761.8 0C738.7 0 715.3 0 692.2 0C669 0 646 0 623 0C600 0 577 0 554 0C531 0 508 0 484.8 0C461.7 0 438.3 0 415.2 0C392 0 369 0 346 0C323 0 300 0 277 0C254 0 231 0 207.8 0C184.7 0 161.3 0 138.2 0C115 0 92 0 69 0C46 0 23 0 11.5 0L0 0Z" fill="#d53867"></path>
    <path d="M0 28L11.5 25C23 22 46 16 69 17.2C92 18.3 115 26.7 138.2 26.8C161.3 27 184.7 19 207.8 19.2C231 19.3 254 27.7 277 27.2C300 26.7 323 17.3 346 16.8C369 16.3 392 24.7 415.2 25.2C438.3 25.7 461.7 18.3 484.8 14.3C508 10.3 531 9.7 554 10.5C577 11.3 600 13.7 623 14.3C646 15 669 14 692.2 13.2C715.3 12.3 738.7 11.7 761.8 13.2C785 14.7 808 18.3 831 20.5C854 22.7 877 23.3 888.5 23.7L900 24L900 0L888.5 0C877 0 854 0 831 0C808 0 785 0 761.8 0C738.7 0 715.3 0 692.2 0C669 0 646 0 623 0C600 0 577 0 554 0C531 0 508 0 484.8 0C461.7 0 438.3 0 415.2 0C392 0 369 0 346 0C323 0 300 0 277 0C254 0 231 0 207.8 0C184.7 0 161.3 0 138.2 0C115 0 92 0 69 0C46 0 23 0 11.5 0L0 0Z" fill="#c62368"></path>
</svg>