<svg id="visual" viewBox="0 0 900 300" width="900" height="300" xmlns="http://www.w3.org/2000/svg" xmlns:xlink="http://www.w3.org/1999/xlink" version="1.1"><rect x="0" y="0" width="900" height="300" fill="#001220"></rect><path d="M0 187L21.5 191.7C43 196.3 86 205.7 128.8 205.3C171.7 205 214.3 195 257.2 193.8C300 192.7 343 200.3 385.8 206.8C428.7 213.3 471.3 218.7 514.2 217.3C557 216 600 208 642.8 201C685.7 194 728.3 188 771.2 190C814 192 857 202 878.5 207L900 212L900 301L878.5 301C857 301 814 301 771.2 301C728.3 301 685.7 301 642.8 301C600 301 557 301 514.2 301C471.3 301 428.7 301 385.8 301C343 301 300 301 257.2 301C214.3 301 171.7 301 128.8 301C86 301 43 301 21.5 301L0 301Z" fill="#fa7268"></path><path d="M0 229L21.5 226C43 223 86 217 128.8 218C171.7 219 214.3 227 257.2 229.3C300 231.7 343 228.3 385.8 222.7C428.7 217 471.3 209 514.2 205.3C557 201.7 600 202.3 642.8 205.7C685.7 209 728.3 215 771.2 216.3C814 217.7 857 214.3 878.5 212.7L900 211L900 301L878.5 301C857 301 814 301 771.2 301C728.3 301 685.7 301 642.8 301C600 301 557 301 514.2 301C471.3 301 428.7 301 385.8 301C343 301 300 301 257.2 301C214.3 301 171.7 301 128.8 301C86 301 43 301 21.5 301L0 301Z" fill="#ef5f67"></path><path d="M0 230L21.5 234C43 238 86 246 128.8 248.3C171.7 250.7 214.3 247.3 257.2 244.7C300 242 343 240 385.8 237.5C428.7 235 471.3 232 514.2 231.5C557 231 600 233 642.8 234.7C685.7 236.3 728.3 237.7 771.2 240.7C814 243.7 857 248.3 878.5 250.7L900 253L900 301L878.5 301C857 301 814 301 771.2 301C728.3 301 685.7 301 642.8 301C600 301 557 301 514.2 301C471.3 301 428.7 301 385.8 301C343 301 300 301 257.2 301C214.3 301 171.7 301 128.8 301C86 301 43 301 21.5 301L0 301Z" fill="#e34c67"></path><path d="M0 269L21.5 267.3C43 265.7 86 262.3 128.8 257.8C171.7 253.3 214.3 247.7 257.2 245.8C300 244 343 246 385.8 249.5C428.7 253 471.3 258 514.2 260.7C557 263.3 600 263.7 642.8 262.5C685.7 261.3 728.3 258.7 771.2 256.7C814 254.7 857 253.3 878.5 252.7L900 252L900 301L878.5 301C857 301 814 301 771.2 301C728.3 301 685.7 301 642.8 301C600 301 557 301 514.2 301C471.3 301 428.7 301 385.8 301C343 301 300 301 257.2 301C214.3 301 171.7 301 128.8 301C86 301 43 301 21.5 301L0 301Z" fill="#d53867"></path><path d="M0 266L21.5 266.3C43 266.7 86 267.3 128.8 267.8C171.7 268.3 214.3 268.7 257.2 270.2C300 271.7 343 274.3 385.8 275.2C428.7 276 471.3 275 514.2 273.3C557 271.7 600 269.3 642.8 270.5C685.7 271.7 728.3 276.3 771.2 275.7C814 275 857 269 878.5 266L900 263L900 301L878.5 301C857 301 814 301 771.2 301C728.3 301 685.7 301 642.8 301C600 301 557 301 514.2 301C471.3 301 428.7 301 385.8 301C343 301 300 301 257.2 301C214.3 301 171.7 301 128.8 301C86 301 43 301 21.5 301L0 301Z" fill="#c62368"></path></svg>